<?xml version="1.0" encoding="utf-8"?>
<!-- Generator: Adobe Illustrator 21.1.0, SVG Export Plug-In . SVG Version: 6.00 Build 0)  -->
<svg version="1.1" id="Capa_1" xmlns="http://www.w3.org/2000/svg" xmlns:xlink="http://www.w3.org/1999/xlink" x="0px" y="0px"
	 viewBox="0 0 330 98" style="enable-background:new 0 0 330 98;" xml:space="preserve">
<style type="text/css">
	.st0{fill:#3F6FB2;}
	.st1{fill:#CD6D9D;}
	.st2{fill:#ECD0E0;}
	.st3{fill:#DB9CBC;}
</style>
<g>
	<g>
		<path class="st0" d="M205.3,36.9l-0.1,0.2c-0.1,0.4-0.4,0.6-0.7,0.6c-0.5,0-0.7-0.2-0.7-0.7v-1.7c0.1-0.5,0.4-0.7,0.7-0.7
			s0.6,0.2,0.8,0.7V36.9z M205.3,50.3c0,0.2-0.1,0.3-0.2,0.5c-0.1,0.1-0.3,0.2-0.5,0.2h-0.2c-0.4,0-0.6-0.2-0.6-0.7V39.6
			c0-0.4,0.2-0.7,0.6-0.7h0.2c0.2,0,0.3,0.1,0.5,0.2c0.1,0.1,0.2,0.3,0.2,0.5V50.3z"/>
		<path class="st0" d="M218,50.3c0,0.2-0.1,0.3-0.2,0.5c-0.1,0.1-0.3,0.2-0.5,0.2H217c-0.4,0-0.6-0.2-0.6-0.6v-6.9
			c0-0.9-0.3-1.5-0.8-2s-1.2-0.7-2.1-0.7c-1.1,0-1.9,0.3-2.5,1s-0.9,1.6-0.9,2.7v5.9c0,0.2-0.1,0.3-0.2,0.5
			c-0.1,0.1-0.3,0.2-0.5,0.2H209c-0.4,0-0.6-0.2-0.6-0.6V39.9c0-0.2,0.1-0.3,0.2-0.5c0.1-0.1,0.3-0.2,0.5-0.2h0.5
			c0.2,0,0.3,0.1,0.4,0.2c0.1,0.1,0.2,0.3,0.2,0.5v0.3c0.1-0.1,0.2-0.2,0.5-0.4h0.1c0.8-0.5,1.7-0.8,2.8-0.8c1.3,0,2.4,0.3,3.2,1
			l0,0c0.9,0.8,1.4,1.8,1.4,3.2v7.1H218z"/>
		<path class="st0" d="M229.7,47.7c0,1.2-0.5,2.1-1.4,2.7c-0.8,0.5-1.8,0.8-3.1,0.8c-3.3,0-4.9-1.5-4.9-4.5c0-0.2,0.1-0.3,0.2-0.5
			c0.1-0.1,0.3-0.2,0.5-0.2h0.5c0.4,0,0.6,0.2,0.6,0.6c0,1.8,1.1,2.8,3.2,2.8c0.7,0,1.3-0.1,1.8-0.4c0.6-0.3,0.9-0.8,0.9-1.4
			c0-0.7-0.6-1.2-1.8-1.5c0,0-0.4-0.1-1.2-0.2c-0.2,0-0.5-0.1-0.9-0.1c-2.2-0.4-3.3-1.5-3.3-3.3c0-1.2,0.5-2.1,1.4-2.7
			c0.8-0.6,1.7-0.8,2.8-0.8c3.2,0,4.7,1.3,4.7,4c0,0.4-0.2,0.7-0.6,0.7h-0.5c-0.4,0-0.6-0.2-0.6-0.7c0-1.5-1-2.3-2.9-2.3
			c-0.6,0-1.2,0.1-1.6,0.4c-0.6,0.3-0.8,0.8-0.8,1.4c0,0.7,0.6,1.1,1.8,1.4h-0.1c0.1,0,0.2,0,0.3,0l0,0c0.4,0.1,1.1,0.2,2,0.4
			C228.6,44.7,229.7,45.8,229.7,47.7z"/>
		<path class="st0" d="M236.5,40.7c0,0.2-0.1,0.3-0.2,0.5c-0.1,0.1-0.3,0.2-0.4,0.2h-1.3v8.9c0,0.2-0.1,0.3-0.2,0.5
			c-0.1,0.1-0.3,0.2-0.4,0.2h-0.3c-0.2,0-0.3-0.1-0.4-0.2c-0.1-0.1-0.2-0.3-0.2-0.5v-8.9h-1.2c-0.2,0-0.3-0.1-0.4-0.2
			c-0.1-0.1-0.2-0.3-0.2-0.5v-0.4c0-0.4,0.2-0.7,0.6-0.7h1.2v-2.7c0-0.4,0.2-0.7,0.6-0.7h0.4c0.2,0,0.3,0.1,0.4,0.2
			c0.1,0.1,0.2,0.3,0.2,0.5v2.7h1.3c0.4,0,0.6,0.2,0.6,0.7v0.4H236.5z"/>
		<path class="st0" d="M239.7,36.9l-0.1,0.2c-0.1,0.4-0.4,0.6-0.7,0.6c-0.5,0-0.7-0.2-0.7-0.7v-1.7c0.1-0.5,0.4-0.7,0.7-0.7
			c0.3,0,0.6,0.2,0.8,0.7L239.7,36.9L239.7,36.9z M239.7,50.3c0,0.2-0.1,0.3-0.2,0.5c-0.1,0.1-0.3,0.2-0.5,0.2h-0.2
			c-0.4,0-0.6-0.2-0.6-0.7V39.6c0-0.4,0.2-0.7,0.6-0.7h0.2c0.2,0,0.3,0.1,0.5,0.2c0.1,0.1,0.2,0.3,0.2,0.5V50.3z"/>
		<path class="st0" d="M247.1,40.7c0,0.2-0.1,0.3-0.2,0.5c-0.1,0.1-0.3,0.2-0.4,0.2h-1.3v8.9c0,0.2-0.1,0.3-0.2,0.5
			c-0.1,0.1-0.3,0.2-0.4,0.2h-0.3c-0.2,0-0.3-0.1-0.4-0.2s-0.2-0.3-0.2-0.5v-8.9h-1.2c-0.2,0-0.3-0.1-0.4-0.2
			c-0.1-0.1-0.2-0.3-0.2-0.5v-0.4c0-0.4,0.2-0.7,0.6-0.7h1.2v-2.7c0-0.4,0.2-0.7,0.6-0.7h0.4c0.2,0,0.3,0.1,0.4,0.2
			c0.1,0.1,0.2,0.3,0.2,0.5v2.7h1.3c0.4,0,0.6,0.2,0.6,0.7v0.4H247.1z"/>
		<path class="st0" d="M258.7,50.3c0,0.2-0.1,0.3-0.2,0.5c-0.1,0.1-0.3,0.2-0.5,0.2h-0.4c-0.4,0-0.6-0.2-0.6-0.6v-0.3
			c-0.9,0.8-2,1.2-3.4,1.2s-2.6-0.4-3.4-1.1c-0.8-0.8-1.3-1.9-1.3-3.3v-6.8c0-0.2,0.1-0.3,0.2-0.5c0.1-0.1,0.3-0.2,0.5-0.2h0.5
			c0.2,0,0.3,0.1,0.5,0.2c0.1,0.1,0.2,0.3,0.2,0.5v6.8c0,1.8,1,2.7,2.9,2.7c1.1,0,2-0.4,2.6-1.1c0.5-0.7,0.8-1.6,0.8-2.8v-5.6
			c0-0.5,0.2-0.7,0.6-0.7h0.4c0.2,0,0.3,0.1,0.5,0.2c0.1,0.1,0.2,0.3,0.2,0.5v10.2H258.7z"/>
		<path class="st0" d="M265.7,40.7c0,0.2-0.1,0.3-0.2,0.5c-0.1,0.1-0.3,0.2-0.4,0.2h-1.3v8.9c0,0.2-0.1,0.3-0.2,0.5
			c-0.1,0.1-0.3,0.2-0.4,0.2h-0.3c-0.2,0-0.3-0.1-0.4-0.2s-0.2-0.3-0.2-0.5v-8.9H261c-0.2,0-0.3-0.1-0.4-0.2
			c-0.1-0.1-0.2-0.3-0.2-0.5v-0.4c0-0.4,0.2-0.7,0.6-0.7h1.2v-2.7c0-0.4,0.2-0.7,0.6-0.7h0.4c0.2,0,0.3,0.1,0.4,0.2
			c0.1,0.1,0.2,0.3,0.2,0.5v2.7h1.3c0.4,0,0.6,0.2,0.6,0.7V40.7z"/>
		<path class="st0" d="M278.6,45.1c0,1.8-0.5,3.3-1.6,4.4c-1,1.1-2.5,1.7-4.3,1.7s-3.2-0.6-4.3-1.7c-1-1.1-1.5-2.6-1.5-4.4
			s0.5-3.3,1.6-4.4c1.1-1.1,2.5-1.7,4.2-1.7s3.1,0.6,4.2,1.7C278.1,41.8,278.6,43.2,278.6,45.1z M276.8,45.1c0-1.3-0.3-2.4-1-3.2
			s-1.7-1.2-3-1.2s-2.3,0.4-3,1.2s-1.1,1.8-1.1,3.2c0,1.3,0.4,2.4,1.1,3.2c0.7,0.8,1.7,1.2,3,1.2s2.3-0.4,3.1-1.2
			C276.5,47.4,276.8,46.4,276.8,45.1z"/>
		<path class="st0" d="M220.8,69.7c0,0.2-0.1,0.3-0.2,0.5c-0.1,0.1-0.3,0.2-0.5,0.2h-0.5c-0.4,0-0.7-0.2-0.7-0.6v-6.9
			c0-1.8-0.8-2.7-2.5-2.7c-0.9,0-1.7,0.3-2.2,0.8c-0.6,0.5-0.9,1.3-0.9,2.2v6.6c0,0.4-0.2,0.6-0.7,0.6h-0.5c-0.4,0-0.7-0.2-0.7-0.6
			v-6.9c0-1.8-0.9-2.7-2.6-2.7c-1,0-1.8,0.4-2.3,1.1s-0.7,1.5-0.7,2.6v5.9c0,0.4-0.2,0.6-0.7,0.6h-0.5c-0.4,0-0.7-0.2-0.7-0.6V59.3
			c0-0.4,0.2-0.7,0.7-0.7h0.5c0.2,0,0.3,0.1,0.5,0.2c0.1,0.1,0.2,0.3,0.2,0.5v0.2c0.1,0,0.2-0.1,0.3-0.2c0.8-0.6,1.8-0.9,3-0.9
			c1.5,0,2.7,0.5,3.4,1.6c0.8-1.1,2.1-1.6,3.8-1.6c2.9,0,4.4,1.4,4.4,4.2L220.8,69.7L220.8,69.7z"/>
		<path class="st0" d="M234.1,64.4c0,0.4-0.2,0.7-0.7,0.7h-8.9c0.2,2.5,1.5,3.7,3.9,3.7c0.8,0,1.6-0.2,2.2-0.6
			c0.7-0.4,1.2-1,1.4-1.7l0,0c0.1-0.3,0.3-0.5,0.6-0.5h0.5c0.4,0,0.7,0.2,0.7,0.7v0.1c-0.6,1.8-1.8,3-3.6,3.6
			c-0.6,0.1-1.1,0.2-1.8,0.2c-1.9,0-3.3-0.6-4.2-1.8l0,0c-0.9-1.1-1.4-2.6-1.4-4.5c0-1.8,0.5-3.3,1.5-4.5c0.6-0.7,1.4-1.2,2.2-1.5
			v-0.1c0,0,0,0,0-0.1v0.1l0,0c-0.1-0.1-0.1-0.3-0.1-0.5c0-0.3,0.1-0.5,0.3-0.6c0,0,0,0,0.1-0.1l2.3-2.6c0.2-0.2,0.4-0.3,0.7-0.3
			c0.2,0,0.5,0.1,0.8,0.3c0.1,0.1,0.1,0.3,0.1,0.5s-0.1,0.4-0.3,0.7l-2,2.3h0.2c1.7,0,3.1,0.5,4.1,1.6s1.5,2.5,1.5,4.3v0.6H234.1z
			 M232.2,63.3c-0.2-1.7-0.9-2.7-2.2-3.2c-0.5-0.2-1-0.3-1.6-0.3c-1.1,0-1.9,0.3-2.6,1c-0.7,0.6-1.1,1.5-1.3,2.6L232.2,63.3
			L232.2,63.3z"/>
		<path class="st0" d="M246.5,69.6c0,0.4-0.2,0.7-0.6,0.7h-0.5c-0.4,0-0.6-0.2-0.6-0.7v-0.7c-1,1.1-2.3,1.6-3.9,1.6
			c-1.7,0-3.2-0.7-4.2-2c-0.9-1.1-1.3-2.6-1.3-4.3c0-1.8,0.5-3.3,1.4-4.4c1-1.3,2.4-1.9,4.2-1.9c1.6,0,2.9,0.5,3.9,1.6v-4.8
			c0-0.4,0.2-0.6,0.6-0.6h0.5c0.4,0,0.6,0.2,0.6,0.6v14.9H246.5z M244.8,64.3c0-1.4-0.3-2.4-0.9-3.2c-0.7-0.9-1.7-1.3-3-1.3
			c-1.2,0-2.2,0.5-2.9,1.4c-0.6,0.8-0.9,1.9-0.9,3.2c0,1.3,0.3,2.3,0.9,3.1c0,0,0.1,0,0.1,0.1c0.7,0.9,1.6,1.3,2.8,1.3
			c1.2,0,2.2-0.5,2.9-1.4C244.4,66.6,244.8,65.6,244.8,64.3z"/>
		<path class="st0" d="M250.5,56.3l-0.1,0.2c-0.1,0.4-0.4,0.6-0.7,0.6c-0.5,0-0.7-0.2-0.7-0.7v-1.7c0.1-0.5,0.4-0.7,0.7-0.7
			c0.3,0,0.6,0.2,0.8,0.7L250.5,56.3L250.5,56.3z M250.5,69.6c0,0.2-0.1,0.3-0.2,0.5c-0.1,0.1-0.3,0.2-0.5,0.2h-0.2
			c-0.4,0-0.6-0.2-0.6-0.7V59c0-0.4,0.2-0.7,0.6-0.7h0.2c0.2,0,0.3,0.1,0.5,0.2c0.1,0.1,0.2,0.3,0.2,0.5V69.6z"/>
		<path class="st0" d="M263.9,66.7c-0.2,1.2-0.9,2.2-2,3h-0.1c-0.9,0.5-1.9,0.8-3.1,0.8c-1.8,0-3.1-0.6-4.2-1.7
			c-1-1.1-1.5-2.5-1.5-4.2c0-1.9,0.5-3.4,1.6-4.6s2.5-1.8,4.4-1.8c1.1,0,2.1,0.3,3,0.8c1,0.7,1.6,1.5,1.8,2.6v0.1
			c0,0.3-0.1,0.5-0.3,0.6l-0.5,0.3c-0.1,0-0.2,0.1-0.3,0.1c-0.4,0-0.6-0.2-0.6-0.5c-0.3-1.5-1.4-2.2-3.1-2.2c-1.4,0-2.4,0.4-3.1,1.3
			c-0.7,0.8-1.1,1.9-1.1,3.3c0,1.3,0.3,2.3,1,3c0.7,0.8,1.7,1.2,2.9,1.2c0.8,0,1.5-0.2,2.2-0.6s1.1-1,1.3-1.8
			c0.1-0.5,0.4-0.7,0.7-0.7c0.1,0,0.2,0,0.3,0.1l0,0l0.5,0.2L263.9,66.7z"/>
		<path class="st0" d="M277,64.4c0,1.8-0.5,3.3-1.6,4.4c-1,1.1-2.5,1.7-4.3,1.7s-3.2-0.6-4.3-1.7c-1-1.1-1.5-2.6-1.5-4.4
			s0.5-3.3,1.6-4.4s2.5-1.7,4.2-1.7s3.1,0.6,4.2,1.7C276.5,61.2,277,62.6,277,64.4z M275.3,64.4c0-1.3-0.3-2.4-1-3.2
			c-0.7-0.8-1.7-1.2-3-1.2s-2.3,0.4-3,1.2c-0.7,0.8-1.1,1.8-1.1,3.2c0,1.3,0.4,2.4,1.1,3.2c0.7,0.8,1.7,1.2,3,1.2s2.3-0.4,3.1-1.2
			C274.9,66.8,275.3,65.8,275.3,64.4z"/>
		<path class="st1" d="M214.7,89c0,0.4-0.2,0.7-0.6,0.7h-0.5c-0.4,0-0.6-0.2-0.6-0.7v-0.7c-1,1.1-2.3,1.6-3.9,1.6
			c-1.7,0-3.2-0.7-4.2-2c-0.9-1.1-1.3-2.6-1.3-4.3c0-1.8,0.5-3.3,1.4-4.4c1-1.3,2.4-1.9,4.2-1.9c1.6,0,2.9,0.5,3.9,1.6v-4.8
			c0-0.4,0.2-0.6,0.6-0.6h0.5c0.4,0,0.6,0.2,0.6,0.6L214.7,89L214.7,89z M212.9,83.7c0-1.4-0.3-2.4-0.9-3.2c-0.7-0.9-1.7-1.3-3-1.3
			c-1.2,0-2.2,0.5-2.9,1.4c-0.6,0.8-0.9,1.9-0.9,3.2c0,1.3,0.3,2.3,0.9,3.1c0,0,0.1,0,0.1,0.1c0.7,0.9,1.6,1.3,2.8,1.3
			s2.2-0.5,2.9-1.4C212.6,86,212.9,85,212.9,83.7z"/>
		<path class="st1" d="M228.1,83.9c0,0.4-0.2,0.7-0.7,0.7h-8.9c0.2,2.4,1.5,3.6,3.9,3.6c0.8,0,1.5-0.2,2.2-0.6s1.2-1,1.5-1.7l0,0
			c0.1-0.3,0.3-0.5,0.6-0.5h0.5c0.4,0,0.7,0.2,0.7,0.7v0.1c-0.8,2.4-2.5,3.6-5.4,3.6c-1.9,0-3.3-0.5-4.2-1.6s-1.4-2.6-1.4-4.4
			s0.5-3.2,1.5-4.3c1.1-1.2,2.5-1.8,4.2-1.8s3.1,0.5,4.1,1.5s1.5,2.4,1.5,4.1v0.6H228.1z M226.2,82.9c-0.1-0.9-0.5-1.7-1-2.3
			c-0.7-0.7-1.6-1.1-2.8-1.1c-1.1,0-1.9,0.3-2.6,0.9c-0.7,0.6-1.1,1.4-1.3,2.5H226.2z"/>
		<path class="st1" d="M236.1,88.9c0,0.2-0.1,0.3-0.2,0.4c-0.1,0.1-0.3,0.2-0.5,0.2h-0.2c-0.4,0-0.7-0.2-0.7-0.6V74.5
			c0-0.4,0.2-0.7,0.7-0.7h0.2c0.2,0,0.3,0.1,0.5,0.2c0.1,0.1,0.2,0.3,0.2,0.5V88.9z"/>
		<path class="st1" d="M249.5,89c0,0.4-0.2,0.6-0.6,0.6h-0.5c-0.4,0-0.6-0.2-0.6-0.6v-0.7c-1,1-2.3,1.5-3.9,1.5
			c-1.8,0-3.1-0.6-4.1-1.8c-0.9-1.1-1.4-2.5-1.4-4.3s0.5-3.2,1.5-4.3c1.1-1.2,2.4-1.8,4.1-1.8c1.6,0,2.9,0.5,3.9,1.5v-0.8
			c0-0.2,0.1-0.3,0.2-0.5c0.1-0.1,0.3-0.2,0.5-0.2h0.5c0.4,0,0.6,0.2,0.6,0.7V89H249.5z M247.7,83.8c0-1.4-0.3-2.4-1-3.1
			c-0.7-0.8-1.7-1.2-3-1.2c-1.2,0-2.2,0.4-2.8,1.3c-0.6,0.8-1,1.8-1,3.1c0,1.3,0.3,2.3,0.9,3c0,0,0.1,0,0.1,0.1
			c0.7,0.8,1.6,1.2,2.8,1.2c1.2,0,2.2-0.4,2.9-1.2C247.4,86.2,247.7,85.1,247.7,83.8z"/>
		<path class="st1" d="M274.1,89c0,0.2-0.1,0.3-0.2,0.5c-0.1,0.1-0.3,0.2-0.5,0.2h-0.5c-0.4,0-0.7-0.2-0.7-0.6v-6.9
			c0-1.8-0.8-2.7-2.5-2.7c-0.9,0-1.7,0.3-2.2,0.8c-0.6,0.5-0.9,1.3-0.9,2.2v6.6c0,0.4-0.2,0.6-0.7,0.6h-0.5c-0.4,0-0.7-0.2-0.7-0.6
			v-6.9c0-1.8-0.9-2.7-2.6-2.7c-1,0-1.8,0.4-2.3,1.1s-0.7,1.5-0.7,2.6v5.9c0,0.4-0.2,0.6-0.7,0.6H258c-0.4,0-0.7-0.2-0.7-0.6V78.7
			c0-0.4,0.2-0.7,0.7-0.7h0.5c0.2,0,0.3,0.1,0.5,0.2c0.1,0.1,0.2,0.3,0.2,0.5v0.2c0.1,0,0.2-0.1,0.3-0.2c0.8-0.6,1.8-0.9,3-0.9
			c1.5,0,2.7,0.5,3.4,1.6c0.8-1.1,2.1-1.6,3.8-1.6c2.9,0,4.4,1.4,4.4,4.2L274.1,89L274.1,89z"/>
		<path class="st1" d="M286.3,89c0,0.2-0.1,0.3-0.2,0.5c-0.1,0.1-0.3,0.2-0.5,0.2h-0.4c-0.4,0-0.6-0.2-0.6-0.6v-0.3
			c-0.9,0.8-2,1.2-3.4,1.2s-2.6-0.4-3.4-1.1c-0.8-0.8-1.3-1.9-1.3-3.3v-6.8c0-0.2,0.1-0.3,0.2-0.5c0.1-0.1,0.3-0.2,0.5-0.2h0.5
			c0.2,0,0.3,0.1,0.5,0.2c0.1,0.1,0.2,0.3,0.2,0.5v6.8c0,1.8,1,2.7,2.9,2.7c1.1,0,2-0.4,2.6-1.1c0.5-0.7,0.8-1.6,0.8-2.8v-5.6
			c0-0.5,0.2-0.7,0.6-0.7h0.4c0.2,0,0.3,0.1,0.5,0.2c0.1,0.1,0.2,0.3,0.2,0.5V89H286.3z"/>
		<path class="st1" d="M290.3,88.6c0,3.4-1.6,5-4.8,5c-0.4,0-0.6-0.2-0.6-0.7v-0.4c0-0.4,0.2-0.7,0.6-0.7c2.1,0,3.2-1.1,3.2-3.3
			V78.1c0-0.5,0.2-0.7,0.6-0.7h0.4c0.2,0,0.3,0.1,0.4,0.2s0.2,0.3,0.2,0.5L290.3,88.6L290.3,88.6z M290.4,75.5v0.3
			c-0.3,0.4-0.5,0.5-0.8,0.5s-0.6-0.2-0.8-0.7v-1.8c0.2-0.5,0.5-0.7,0.8-0.7c0.2,0,0.5,0.2,0.8,0.6V75.5z"/>
		<path class="st1" d="M303.6,83.9c0,0.4-0.2,0.7-0.7,0.7H294c0.2,2.4,1.5,3.6,3.9,3.6c0.8,0,1.5-0.2,2.2-0.6s1.2-1,1.5-1.7l0,0
			c0.1-0.3,0.3-0.5,0.6-0.5h0.5c0.4,0,0.7,0.2,0.7,0.7v0.1c-0.7,2.4-2.5,3.6-5.4,3.6c-1.9,0-3.3-0.5-4.2-1.6
			c-0.9-1.1-1.4-2.6-1.4-4.4s0.5-3.2,1.5-4.3c1.1-1.2,2.5-1.8,4.2-1.8s3.1,0.5,4.1,1.5s1.5,2.4,1.5,4.1v0.6H303.6z M301.7,82.9
			c-0.1-0.9-0.5-1.7-1-2.3c-0.7-0.7-1.6-1.1-2.8-1.1c-1.1,0-1.9,0.3-2.6,0.9s-1.1,1.4-1.3,2.5H301.7z"/>
		<path class="st1" d="M310.8,79l-0.4,0.4c-0.1,0.1-0.1,0.1-0.2,0.1c-1.1,0-2,0.6-2.6,1.7c-0.5,1-0.8,2.2-0.8,3.8v4.1
			c0,0.2-0.1,0.3-0.2,0.4s-0.3,0.2-0.4,0.2h-0.4c-0.4,0-0.6-0.2-0.6-0.6V78.7c0-0.2,0.1-0.3,0.2-0.5c0.1-0.1,0.3-0.2,0.4-0.2h0.4
			c0.2,0,0.3,0.1,0.4,0.2s0.2,0.3,0.2,0.5v0.6l0.2-0.2c0.9-0.9,1.9-1.3,3.2-1.3c0.4,0,0.6,0.2,0.6,0.6L310.8,79L310.8,79z"/>
	</g>
	<g>
		<polygon class="st0" points="195.6,90.5 193,90.5 193,32.6 195.6,32.6 		"/>
	</g>
	<g>
		<g>
			<path class="st0" d="M111,50.8L111,50.8c-0.4-2.5-1.2-4.7-2.4-6.7c-1.2-2.1-2.8-4-4.6-5.6c-1.8-1.6-3.9-2.8-6.3-3.7
				c-2.3-0.9-4.8-1.3-7.4-1.3c-3.4,0-6.5,0.8-9.4,2.3c-0.8,0.4-1.5,0.9-2.2,1.3l-0.5,0.3L77.7,37c-0.7-0.5-1.5-0.9-2.2-1.3
				c-2.9-1.5-6.1-2.3-9.5-2.3c-2.6,0-5.1,0.4-7.4,1.3c-0.5,0.2-0.9,0.4-1.4,0.6v-1.4H45.1v18.3V78v12.4H58v-36
				c0-2.3,0.7-4.1,2.3-5.7c1.6-1.6,3.4-2.3,5.7-2.3c1.1,0,2.1,0.2,3.1,0.6c0.9,0.4,1.7,0.9,2.4,1.6l0.3,0.3v41.5h13V48.8l0.3-0.3
				c0.7-0.7,1.5-1.2,2.3-1.5c1-0.4,2-0.6,3.1-0.6c2.3,0,4.1,0.7,5.7,2.3c1.5,1.5,2.2,3.2,2.3,5.3l0,0v36.2h12.9v-38
				C111.2,51.7,111.2,51.2,111,50.8z"/>
		</g>
		<g>
			<path class="st0" d="M184.4,50.8L184.4,50.8c-0.4-2.5-1.2-4.7-2.4-6.7c-1.2-2.1-2.8-4-4.6-5.6s-3.9-2.8-6.3-3.7
				c-2.3-0.9-4.8-1.3-7.4-1.3c-3.4,0-6.5,0.8-9.4,2.3c-0.8,0.4-1.5,0.9-2.2,1.3l-0.5,0.3L151,37c-0.7-0.5-1.5-0.9-2.2-1.3
				c-2.9-1.5-6.1-2.3-9.5-2.3c-2.6,0-5.1,0.4-7.4,1.3c-0.5,0.2-0.9,0.4-1.4,0.6v-1.4h-12.1v18.3V78v12.4h12.9v-36
				c0-2.3,0.7-4.1,2.3-5.7s3.4-2.3,5.7-2.3c1.1,0,2.1,0.2,3.1,0.6c0.9,0.4,1.7,0.9,2.4,1.6l0.3,0.3v41.5h13V48.8l0.3-0.3
				c0.7-0.7,1.5-1.2,2.3-1.5c1-0.4,2-0.6,3.1-0.6c2.3,0,4.1,0.7,5.7,2.3c1.5,1.5,2.2,3.2,2.3,5.3l0,0v36.2h12.9v-38
				C184.6,51.7,184.6,51.2,184.4,50.8z"/>
		</g>
		<g>
			<path class="st0" d="M29.9,41.7c-2.3,0-4.5-0.5-6.5-1.3v50h12.9v-50C34.3,41.2,32.2,41.7,29.9,41.7z"/>
		</g>
	</g>
	<g>
		<g>
			<g>
				<path class="st2" d="M34.5,29.6c-4.4-0.5-8.6-2.4-11.9-5.7c-0.6-0.6-1.1-1.2-1.6-1.8c-2.1-2.7-3.5-5.9-4-9.2
					c-4,5.6-3.9,13.1,0.2,18.6c0.5,0.6,0.9,1.2,1.5,1.7c2.5,2.5,5.7,4,9,4.5c0.9-0.6,1.8-1.4,2.6-2.2C32.1,33.8,33.5,31.8,34.5,29.6
					z"/>
			</g>
			<g>
				<path class="st3" d="M44.5,28.1c1.6-4.1,1.5-8.7-0.3-12.7c-3.1-1.2-6.4-1.6-9.6-1.3c2,5,1.9,10.6-0.3,15.5c-1,2.2-2.3,4.2-4.1,6
					c-0.8,0.8-1.7,1.5-2.6,2.2c4.8,0.7,9.8-0.8,13.4-4.5C42.6,31.8,43.8,30,44.5,28.1z"/>
			</g>
			<g>
				<path class="st1" d="M41.2,11C37.9,7.7,33.4,6.1,29,6.4c-3.7,0.2-7.4,1.8-10.3,4.6c-0.7,0.7-1.2,1.3-1.7,2.1
					c0.5,3.3,1.8,6.4,4,9.2c0.6-0.8,1.2-1.6,2-2.3c3.3-3.3,7.5-5.2,11.8-5.7c3.2-0.4,6.5,0.1,9.6,1.3C43.6,13.9,42.5,12.4,41.2,11z"
					/>
			</g>
		</g>
	</g>
</g>
</svg>
